<svg xmlns="http://www.w3.org/2000/svg" viewBox="0 0 32 32">
  <!-- 귀 -->
  <circle cx="7"  cy="7"  r="5.5" fill="#6B4C35"/>
  <circle cx="25" cy="7"  r="5.5" fill="#6B4C35"/>
  <circle cx="7"  cy="7"  r="3.2" fill="#E8C9A8"/>
  <circle cx="25" cy="7"  r="3.2" fill="#E8C9A8"/>
  <!-- 머리 -->
  <circle cx="16" cy="18" r="13.5" fill="#6B4C35"/>
  <!-- 얼굴 -->
  <circle cx="16" cy="18" r="12.2" fill="#7A5842"/>
  <!-- 볼터치 -->
  <ellipse cx="9"  cy="21" rx="2.8" ry="1.8" fill="#E8A080" opacity=".35"/>
  <ellipse cx="23" cy="21" rx="2.8" ry="1.8" fill="#E8A080" opacity=".35"/>
  <!-- 눈 -->
  <circle cx="12" cy="16" r="2.2" fill="#1A1A1A"/>
  <circle cx="20" cy="16" r="2.2" fill="#1A1A1A"/>
  <circle cx="12.7" cy="15.2" r=".8" fill="#fff"/>
  <circle cx="20.7" cy="15.2" r=".8" fill="#fff"/>
  <!-- 안경 -->
  <rect x="9.5"  y="13.8" width="5.2" height="4" rx="1.4" fill="none" stroke="#5B4B8A" stroke-width=".9"/>
  <rect x="17.3" y="13.8" width="5.2" height="4" rx="1.4" fill="none" stroke="#5B4B8A" stroke-width=".9"/>
  <line x1="14.7" y1="15.8" x2="17.3" y2="15.8" stroke="#5B4B8A" stroke-width=".9"/>
  <line x1="7.5"  y1="15.8" x2="9.5"  y2="15.8" stroke="#5B4B8A" stroke-width=".7"/>
  <line x1="22.5" y1="15.8" x2="24.5" y2="15.8" stroke="#5B4B8A" stroke-width=".7"/>
  <!-- 코 -->
  <ellipse cx="16" cy="19.5" rx="1.6" ry="1.1" fill="#4A3020"/>
  <!-- 입 -->
  <path d="M 13 22 Q 16 24.5 19 22" stroke="#4A3020" stroke-width=".9" fill="none" stroke-linecap="round"/>
</svg>